<?xml version="1.0" encoding="UTF-8"?>
<svg id="Layer_2" data-name="Layer 2" xmlns="http://www.w3.org/2000/svg" viewBox="0 0 283.57 283.57">
  <defs>
    <style>
      .cls-1 {
        fill: none;
      }

      .cls-2 {
        fill: #231f20;
      }
    </style>
  </defs>
  <g id="Layer_1-2" data-name="Layer 1">
    <g>
      <rect class="cls-1" width="283.57" height="283.57"/>
      <g>
        <path class="cls-2" d="m272.62,61.76c0-3.72-1.45-7.22-4.08-9.85-2.63-2.63-6.13-4.08-9.85-4.08-2.6,0-4.56.72-5.45,1.1-2.14.91-3.58,2.16-4.4,2.98-50.07,50.06-100.14,100.12-150.21,150.19-17.55-17.55-35.09-35.1-52.64-52.64-2.63-2.63-6.13-4.08-9.85-4.08s-7.22,1.45-9.85,4.08c-2.63,2.63-4.08,6.13-4.08,9.85s1.45,7.22,4.08,9.85l62.5,62.5c2.63,2.63,6.13,4.08,9.85,4.08s7.22-1.45,9.85-4.08l160.05-160.05c2.63-2.63,4.08-6.13,4.08-9.85Z"/>
        <path class="cls-2" d="m17.67,142.74c1.66-1.66,3.72-2.74,5.93-3.57v-58.36l22.82,48.47,43.36,43.4,43.57-91.87v65.77l30.97-30.96v-48.4c0-5.73-4.65-10.38-10.38-10.38h-22.92c-4.05,0-7.72,2.35-9.42,6.02l-41.9,90.46L36.32,62.74c-1.73-3.61-5.37-5.9-9.36-5.9h-14.5c-5.73,0-10.38,4.65-10.38,10.38v162.9h21.53v-47.01c0-3.07-1.56-5.85-3.81-7.93-11.86-11-9.91-24.65-2.12-32.45Z"/>
        <path class="cls-2" d="m258.25,102.74l-.04,101.54-47.58-53.94-16.1,16.09,50.4,56.74c3.28,3.7,7.99,5.81,12.94,5.81h23.63V79.5l-23.25,23.24Z"/>
        <polygon class="cls-2" points="133.35 229.89 164.32 229.89 164.32 196.63 133.35 227.59 133.35 229.89"/>
      </g>
    </g>
  </g>
</svg>